<?xml version="1.0" encoding="UTF-8"?>
<svg xmlns="http://www.w3.org/2000/svg" version="1.1" viewBox="0 0 1296 1296">
  <defs>
    <style>
      .cls-1 {
        fill: #55b948;
        stroke: #231f20;
        stroke-miterlimit: 10;
      }
    </style>
  </defs>
  <!-- Generator: Adobe Illustrator 28.6.0, SVG Export Plug-In . SVG Version: 1.2.0 Build 709)  -->
  <g>
    <g id="Layer_2">
      <path class="cls-1" d="M622,387s-93-149-96-182c0,0,108,54,104,163l-8,19Z"/>
      <path class="cls-1" d="M630.11,140s-32.11,109.4-21.11,144.2c0,0,25,33.8,26,72.8,0,0,52.22-78-4.89-217Z"/>
      <path class="cls-1" d="M497,357s93-27,125,30c0,0-17,35-125-30Z"/>
      <path class="cls-1" d="M759,387s-58.76-51.58-132.88-9.79c0,0,37.88,19.79,132.88,9.79Z"/>
      <path class="cls-1" d="M622,387s0,77-9,91c0,0,3,157-13,168,0,0,15,105,0,140,0,0,10,102-11,129,0,0,17,103,0,131,0,0,3,130-7,137l52,7s-1-126,8-133c0,0-11-113,0-135,0,0-6-119,7-133.5,0,0-20-106.5,5-135.5,0,0-21-136,0-170,0,0-16-58-6-96h-26Z"/>
      <path class="cls-1" d="M635,357l57.56-46s31.44-27.35,96.44-30.17l-51.91,37.72,51.91,12.45s-90,39-154,26l57.56-46,66.44-109c-24,1-103.1,82.99-103.1,82.99"/>
    </g>
  </g>
</svg>