<svg width="62" height="62" viewBox="0 0 62 62" fill="none" xmlns="http://www.w3.org/2000/svg">
<path d="M0 30.2128V31.8839C0.435937 47.9167 13.3445 60.789 28.7113 61.9999H33.434C48.8855 60.7769 61.5762 47.7956 62 31.8597V30.2128C61.5762 13.9984 48.4496 0.8476 32.6227 0.0362717C15.5969 -0.823494 0.472266 12.8359 0 30.2128Z" fill="url(#paint0_radial_5_54)"/>
<path d="M31.1453 15.5727C36.0859 15.5727 36.6672 15.5848 38.6289 15.6817C40.4332 15.7543 41.4019 16.0692 42.0559 16.3235C42.9156 16.6625 43.5332 17.0743 44.175 17.7282C44.8168 18.3821 45.2285 19.0118 45.5676 19.8836C45.8219 20.5496 46.1125 21.5426 46.2094 23.3832C46.3062 25.3692 46.3184 25.9625 46.3184 30.9879C46.3184 36.0133 46.3062 36.6067 46.2094 38.5926C46.1367 40.4211 45.834 41.4262 45.5676 42.0922C45.2285 42.9641 44.8289 43.5938 44.175 44.2477C43.5332 44.9016 42.9156 45.3133 42.0559 45.6524C41.4019 45.9188 40.4211 46.2215 38.6289 46.2942C36.6793 46.391 36.0859 46.4032 31.1453 46.4032C26.2047 46.4032 25.6234 46.391 23.6617 46.2942C21.8574 46.2215 20.8887 45.9067 20.2348 45.6524C19.375 45.3133 18.7574 44.9016 18.1156 44.2477C17.4738 43.5938 17.0621 42.9641 16.723 42.0922C16.4687 41.4262 16.1781 40.4332 16.0812 38.5926C15.9844 36.6067 15.9723 36.0133 15.9723 30.9879C15.9723 25.9625 15.9844 25.3692 16.0812 23.3832C16.1539 21.5547 16.4566 20.5496 16.723 19.8836C17.0621 19.0118 17.4617 18.3821 18.1156 17.7282C18.7574 17.0743 19.375 16.6625 20.2348 16.3235C20.8887 16.0571 21.8695 15.7543 23.6617 15.6817C25.6113 15.5969 26.2047 15.5727 31.1453 15.5727ZM31.1453 12.1821C26.1199 12.1821 25.4902 12.2063 23.5285 12.3032C21.5668 12.4 20.2105 12.7149 19.0359 13.175C17.8129 13.6594 16.7836 14.3012 15.7664 15.3547C14.7371 16.4082 14.1074 17.4496 13.6352 18.6969C13.175 19.8836 12.8602 21.2641 12.7754 23.2621C12.6785 25.2602 12.6664 25.902 12.6664 31.0121C12.6664 36.1223 12.6906 36.7641 12.7754 38.7621C12.8723 40.7602 13.1871 42.1285 13.6352 43.3274C14.1074 44.5625 14.7371 45.6161 15.7664 46.6696C16.7957 47.7231 17.825 48.3649 19.0359 48.8493C20.2105 49.3215 21.5668 49.6364 23.5285 49.7211C25.5023 49.818 26.132 49.8422 31.1453 49.8422C36.1586 49.8422 36.8004 49.818 38.7621 49.7211C40.7238 49.6243 42.0801 49.3094 43.2547 48.8493C44.4777 48.3649 45.507 47.7231 46.5242 46.6696C47.5535 45.6161 48.1832 44.5746 48.6555 43.3274C49.1156 42.1407 49.4305 40.7602 49.5152 38.7621C49.6121 36.7641 49.6242 36.1223 49.6242 31.0121C49.6242 25.902 49.6 25.2602 49.5152 23.2621C49.4184 21.2641 49.1035 19.8957 48.6555 18.6969C48.1832 17.4618 47.5535 16.4082 46.5242 15.3547C45.4949 14.3012 44.4656 13.6594 43.2547 13.175C42.0801 12.7028 40.7238 12.3879 38.7621 12.3032C36.8004 12.2063 36.1586 12.1821 31.1453 12.1821Z" fill="white"/>
<path d="M31.1453 21.3367C25.8898 21.3367 21.6516 25.6598 21.6516 31C21.6516 36.3402 25.902 40.6633 31.1453 40.6633C36.3887 40.6633 40.6391 36.3402 40.6391 31C40.6391 25.6598 36.3887 21.3367 31.1453 21.3367ZM31.1453 37.2727C27.7426 37.2727 24.9816 34.4754 24.9816 31C24.9816 27.5246 27.7426 24.7274 31.1453 24.7274C34.548 24.7274 37.309 27.5246 37.309 31C37.309 34.4754 34.548 37.2727 31.1453 37.2727Z" fill="white"/>
<path d="M41.0145 23.2016C42.2383 23.2016 43.2305 22.1932 43.2305 20.9492C43.2305 19.7053 42.2383 18.6969 41.0145 18.6969C39.7906 18.6969 38.7984 19.7053 38.7984 20.9492C38.7984 22.1932 39.7906 23.2016 41.0145 23.2016Z" fill="white"/>
<defs>
<radialGradient id="paint0_radial_5_54" cx="0" cy="0" r="1" gradientUnits="userSpaceOnUse" gradientTransform="translate(1.13293 56.3152) rotate(-86.9998) scale(89.6354 76.1901)">
<stop stop-color="#FED576"/>
<stop offset="0.2634" stop-color="#F47133"/>
<stop offset="0.6091" stop-color="#BC3081"/>
<stop offset="1" stop-color="#4C63D2"/>
</radialGradient>
</defs>
</svg>
