<svg width="37" height="37" viewBox="0 0 37 37" fill="none" xmlns="http://www.w3.org/2000/svg">
<path d="M33.74 0H2.66C1.12 0 0 1.12 0 2.66V33.74C0 35.14 1.26 36.4 2.66 36.4H33.74C35.28 36.4 36.4 35.28 36.4 33.74V2.66C36.4 1.12 35.14 0 33.74 0ZM11.2 30.8H5.6V14H11.2V30.8ZM8.4 11.76C6.58 11.76 5.04 10.22 5.04 8.4C5.04 6.58 6.58 5.04 8.4 5.04C10.22 5.04 11.76 6.58 11.76 8.4C11.76 10.22 10.22 11.76 8.4 11.76ZM30.8 30.8H25.2V22.4C25.2 20.16 24.64 17.92 22.4 17.92C20.16 17.92 19.6 20.16 19.6 22.4V30.8H14V14H19.6V15.96H19.88C20.58 14.56 22.4 13.44 24.5 13.44C29.68 13.44 30.8 16.8 30.8 21V30.8Z" fill="#231F20"/>
</svg>
